<svg width="85" height="42" fill="none" xmlns="http://www.w3.org/2000/svg"><path d="M13 13c-2 0-4 2-4 4s2 4 4 4c3 0 4-2 4-4s-1-4-4-4ZM45 12c0-3-1-6-3-8l-9-3c-4 0-7 1-9 3-3 2-4 5-4 8v16s25-2 25-16ZM0 34c0 2 1 4 3 5l6 2 6-2c2-1 2-3 2-5V22S0 24 0 34Zm9 2-2-1v-1l-1-1 1-1h4a2 2 0 0 1-1 3l-1 1ZM25 32v4h-1v-4h1Zm1 2h-2 2Zm1-2v1h-3v-1h3Zm4 2v1l-1 1h-2l-1-1v-2l1-1h2l1 1v1Zm-1 0v-1a1 1 0 0 0-1 0h-1v2l1 1v-1h1v-1Zm4 1h-1v-1h-2v-1l1-1a2 2 0 0 1 2 0v1h-2l1 1h1a1 1 0 0 1 0 1v1h-1a2 2 0 0 1-1 0l-1-1h1v1h1l1-1Zm3-3v4h-1v-4h1Zm1 0v1h-3v-1h3Zm4 4h-3 3Zm-2-4v4h-1v-4h1Zm1 2h-2 2Zm1-2v1h-3v-1h3Zm0 0h3v2h-1v1h-1v-1h1v-1h-1v3h-1v-4Zm2 4-1-2h1l1 2h-1Zm5-1h-1v-1h2v-1h-2v3h-1v-4h3a1 1 0 0 1 1 1l-1 1v1h-1Zm5 1h-2 2Zm-2-4v4h-1v-4h1Zm2 2h-2 2Zm0-2v1h-2v-1h2Zm3 0v4h-1v-4h1Zm1 0v1h-4v-1h4Zm3 4h-2 2Zm-2-4v4h-1v-4h1Zm2 2h-2 2Zm0-2v1h-2v-1h2Zm1 0h2l1 1v1h-1v1h-2v-1h2v-1h-1v3h-1v-4Zm2 4-1-2h1l1 2h-1Zm4-1h-1v-1h-1v-2h1a2 2 0 0 1 1 0l1 1h-3 1v1h1a1 1 0 0 1 1 1v1h-1a2 2 0 0 1-2 0v-1h-1 2v1h1v-1Z" fill="#AFB1B8"/></svg>