<svg width="94" height="45" fill="none" xmlns="http://www.w3.org/2000/svg"><path d="M47 21v-6l2-1h2l1 2v1h-2v-2h-1v6h1v-2h2v1l-1 1-2 1-2-1ZM54 21v-7h4l1 2v3l-1 2-2 1-2-1Zm3 0v-6h-1l-1 1v4l1 1a1 1 0 0 0 1 0ZM61 14h2l1 6 1-6h2v8h-1v-6l-1 6h-1l-2-6v6h-1v-8ZM69 14h3c2 0 2 1 2 2 0 2 0 2-2 2h-1v4h-2v-8Zm3 3h1v-2h-2v2h1ZM77 14h2l2 8h-2v-2h-2v2h-2l2-8Zm1 5v-3l-1 3h1ZM82 14h1l3 5v-5h1v8h-1l-2-5v5h-2v-8ZM90 19l-2-5h2l1 3 1-3h2l-2 5v3h-2v-3ZM50 26h-1v3h-1v-3h-1 3ZM54 29l-1-1h-2v1h-1l2-3h1l1 3Zm-2-1h1v-2h-1v2ZM57 29h1v-2h1v2a3 3 0 0 1-1 0h-2l-1-1v-1l1-1a3 3 0 0 1 2 0 2 2 0 0 1 1 0h-1a2 2 0 0 0-1 0h-1v3a1 1 0 0 0 1 0ZM63 29h2-3v-3h1v3ZM67 29h-1v-3h1v3ZM69 26l2 2v-2h1v3h-1l-2-3v3h-1v-3h1ZM76 26h-2v1h2v1h-2v1h2-3v-3h3ZM15 3l26 6v22l-26-6V3Zm-1-2v25l29 7V8L14 1Z" fill="#AFB1B8"/><path d="M29 45 0 38V12l29 8v25Z" fill="#AFB1B8"/><path d="m14 2 25 7-10 9-26-6L14 2Zm0-1L0 12l29 8L43 8 14 1ZM31 43l12-10-12-3v13Z" fill="#AFB1B8"/></svg>