<svg width="63" height="47" fill="none" xmlns="http://www.w3.org/2000/svg"><path d="M5 39v2H0v-6h3l1 1h1v2H4l1 1Zm-4-1h2l1-1-1-1H1v2Zm2 2h1v-1H1v1h2ZM11 41l-2-2H8v2H7v-6h3l1 1 1 1v1l-2 1 2 2h-1Zm-3-3h2l1-1h-1v-1H8v2ZM18 40h-3v1h-2l3-6h1l3 6h-2v-1Zm0-1-1-2-1 2h2ZM27 41h-1l-3-4v4h-1v-6h1l3 4v-4h1v6ZM35 40l-1 1h-4v-6h2l2 1 1 1a3 3 0 0 1 0 3Zm-2 0 1-2-1-1-1-1h-1v4h2ZM19 1s17 6 17 15v14s-18-6-17-14V1ZM51 27c4-2 8-4 12-4v-5c-5 2-9 5-12 9Z" fill="#AFB1B8"/><path d="M49 28c3-5 8-9 14-11V4s-25 9-25 21v21l3-1v-2c1-6 4-11 8-15Z" fill="#AFB1B8"/><path d="m47 36 1-4a19 19 0 0 0-5 12l5-2-1-6ZM48 36v6c7-4 15-10 15-17-5 0-10 2-13 5l-2 6Z" fill="#AFB1B8"/></svg>