<svg width="40" height="52" fill="none" 
xmlns="http://www.w3.org/2000/svg">
<path fill-rule="evenodd" clip-rule="evenodd" 
d="M17 3h-1a24 24 0 0 0-1 0C11 3 7 4 4 6v22h1a38 38 0 0 1 11-2v3h-2a32 32 0 0 0-13 4V4a30 30 0 0 1 15-4 29 29 0 0 1 5 1v3l-3-1h-1Zm5 3h2a31 31 0 0 0 15-4v28a30 30 0 0 1-20 3V5a23 23 0 0 0 3 1Zm14 0h-1l-2 1a34 34 0 0 1-11 1h-1v23h3a27 27 0 0 0 12-3V6Z" 
fill="#AFB1B8"/><path d="M3 42a1 1 0 0 0-1 0H1a2 2 0 0 0-1 1v5h1v1h1a2 2 0 0 0 1-2H2v1a1 1 0 0 1-1 0v-5a1 1 0 0 1 1 0v1h1v-1a2 2 0 0 0 0-1ZM9 42a2 2 0 0 0-2 0H6v6l1 1a2 2 0 0 0 1 0l1-1a2 2 0 0 0 0-1v-5Zm-1 5a1 1 0 0 1 0 1 1 1 0 0 1-1 0 1 1 0 0 1 0-1v-4a1 1 0 0 1 1 0v4ZM16 49v-7h-1l-1 3-1-3h-1v7h1v-4l1 2 1-2v4h1ZM22 42h-3v7h1v-3h2v-1a5 5 0 0 0 0-2v-1Zm-1 2v1h-1v-2h1v1ZM27 42h-1l-2 7h1l1-2h1v2h1l-1-7Zm-1 4v-2l1 2h-1ZM33 46l-2-4v7-4h1l1 4h1v-7h-1v4ZM39 42l-1 3-1-3h-1l2 4v3h1v-3l1-4h-1ZM0 51v1h1v-2H0v1ZM4 50l-1 2h2l-1-2Zm0 1ZM8 51v1l-1-1h2l-1-1-1 1v1a1 1 0 0 0 1 0h1v-1H8ZM12 50v2h1-1v-2ZM15 50v2-2ZM19 51l-1-1v2-1l1 1v-2 1ZM22 51v-1h-1v2h2-1v-1ZM29 51h-1v-1 2-1h1v1-2 1ZM32 51h1-1 1v-1h-1v2h1-1v-1ZM36 51v-1h-1v2-1h1v1h1-1v-1Zm0 0h-1 1ZM39 51h1-1 1v-1h-1v2h1-1v-1Z" fill="#AFB1B8"/></svg>