<svg aria-hidden="true" style="position:absolute;width:0;height:0;overflow:hidden" xmlns="http://www.w3.org/2000/svg"><defs>
<symbol id="icon-instagram-1" viewBox="0 0 32 32">
<path fill="#afb1b8" style="fill:var(--color1, #afb1b8)" 
d="m32 9-1-3c0-2-1-3-2-3l-2-2-4-1A110 110 0 0 0 6 1L3 3C2 3 1 4 1 6L0 9a110 110 0 0 0 1 17c0 2 1 3 2 3l3 2 3 1a117 117 0 0 0 18-1c2-1 3-2 4-5l1-3V9zm-3 13v3c-1 2-2 3-4 3l-2 1a113 113 0 0 1-16-1l-2-1-1-2-1-3A113 113 0 0 1 4 7l1-2 2-1 3-1a113 113 0 0 1 16 1l1 1 2 2v15z"/><path fill="#afb1b8" style="fill:var(--color1, #afb1b8)" d="M16 8a8 8 0 1 0 0 16 8 8 0 0 0 0-16zm0 13a5 5 0 1 1 0-10 5 5 0 0 1 0 10zM27 7a2 2 0 1 1-4 0 2 2 0 0 1 4 0z"/></symbol>

<symbol id="icon-linkedin-4" viewBox="0 0 32 32">
<path fill="#afb1b8" style="fill:var(--color1, #afb1b8)" 
d="M32 32V20c0-5-1-10-8-10-3 0-5 2-6 4v-3h-7v21h7V21c0-2 0-5 4-5 3 0 3 3 3 6v10h7zM1 11h6v21H1V11zM4 0C2 0 0 2 0 4s2 4 4 4 4-2 4-4-2-4-4-4z"/></symbol>

<symbol id="icon-company-6" viewBox="0 0 67 32">
<path fill="#afb1b8" style="fill:var(--color1, #afb1b8)" 
d="m34 15-1-1v-2l1-2h3v2h-1v-1h-1v4h1v-1h1v1l-2 1-1-1zM39 15l-1-1v-2l1-2h3v5l-2 1-1-1zm2 0v-4h-2v3l1 1h1zM43 10h2l1 4 1-4h1v6h-1v-4l-1 4h-1l-1-4v4h-1v-6zM49 10h2c1 0 2 0 2 2l-2 1v3h-2v-6zm2 2a1 1 0 0 0 1 0v-1h-1v1zM55 10h1l1 6h-1v-2h-1v2h-2l2-6zm1 4-1-3v3h1zM58 10h1l2 3v-3h1v6h-1l-2-4v4h-1v-6zM64 13l-1-3h1l1 2 1-2h1l-2 3v3h-1v-3zM36 18h-1v3h-1v-3h-1 3zM39 21h-1v-1h-1l-1 1 1-3 2 3zm-2-1h1l-1-1v-1 2zM41 21a1 1 0 0 0 0-1h1-1 1v1a2 2 0 0 1-1 0h-1v-1h-1v-1h1v-1a2 2 0 0 1 1 0 2 2 0 0 1 1 0v1h-1a2 2 0 0 0 0-1l-1 1v1a1 1 0 0 0 1 1zM45 20h1v1h-2v-3h1v2zM47 21v-3 3zM49 18l2 2v-2 3l-2-2v2-3zM54 18h-1v1h1v1h-1 1v1h-2v-3h2zM11 2l18 4v16l-18-4V2zm-1-1v17l20 5V6L10 1z"/><path fill="#afb1b8" style="fill:var(--color1, #afb1b8)" d="M21 32 0 27V9l21 5v18z"/><path fill="#afb1b8" style="fill:var(--color1, #afb1b8)" d="m10 2 18 4-8 7L2 8l8-6zm0-1L0 9l21 5 9-8-20-5zM22 31l8-8-8-2v10z"/></symbol>
<symbol id="icon-company-5" viewBox="0 0 43 32">
<path fill="#afb1b8" style="fill:var(--color1, #afb1b8)" 
d="M3 26v2H0v-4h3v1c0 1 0 0 0 0v1zm-2 0h1v-1H1v1zm1 1h1c1 0 0 0 0 0l-1-1H1v1h1c0 1 0 0 0 0zM7 28l-1-1v1H5v-4h3v2H7l1 2H7zm-1-2 1-1H6v1zM12 27h-2v1H9l2-4h1l2 4h-1l-1-1zm0 0-1-2v2h1zM19 28h-1l-2-3v3h-1v-4h1l2 3v-3h1v4zM24 27l-1 1h-3v-4h3l1 1a2 2 0 0 1 0 2zm-1 0v-2h-2v2h2zM13 1s12 4 11 10v10s-11-4-11-10V1zM35 18l8-2v-3c-4 1-6 3-8 5z"/><path fill="#afb1b8" style="fill:var(--color1, #afb1b8)" d="M34 19c2-3 5-6 9-7V3S26 9 26 17v14h2v-2c0-4 2-7 6-10z"/><path fill="#afb1b8" style="fill:var(--color1, #afb1b8)" d="m32 25 1-3a13 13 0 0 0-4 8l3-1v-4zM33 25v3c5-2 10-6 10-11-4 0-7 1-9 4l-1 4z"/></symbol>

<symbol id="icon-company-4" viewBox="0 0 65 32">
<path fill="#afb1b8" style="fill:var(--color1, #afb1b8)" 
d="M10 10c-2 0-3 1-3 3s1 3 3 3 3-1 3-3-1-3-3-3zM34 9l-2-6c-1-2-5-2-7-2-3 0-5 0-7 2l-3 6v12s19-1 19-12zM0 26l2 4a7 7 0 0 0 9 0c2-1 2-3 2-4v-9S0 18 0 26zm7 1H6l-1-1v-2h2l1 1a1 1 0 0 1 0 2H7c-1 0 0 0 0 0zM19 24v4h-1v-4h1zm1 2h-1 1zm0-2v1h-1v-1h1zm3 2v2h-2v-4h2v2zm0 0v-1h-2v2h1l1-1zm3 1h-1v-1h-1v-1l1-1a2 2 0 0 1 1 0v1h-2 1v1h1v1l-1 1c-1 0 0 0 0 0l-1-1h2zm2-3v4h-1v-4h1zm1 0v1h-3v-1h3zm3 3v1h-2v-1h2zm-2-3v4h-1v-4h1zm1 2h-1 1zm1-2v1h-2v-1h2zm0 0h2v2h-2 2c1 0 0 0 0 0v-1h-1v3h-1v-4zm2 4-1-2h1l1 2h-1zm3-2h1v-1h-1v3h-1v-4h2a1 1 0 0 1 1 1l-1 1c-1 0 0 0 0 0h-1zm4 1v1h-1v-1h1zm-1-3v4h-1v-4h1zm1 2h-1 1zm0-2v1h-1v-1h1zm2 0v4h-1v-4h1zm1 0v1h-3v-1h3zm3 3v1h-2v-1h2zm-2-3v4-4zm1 2h-1 1zm1-2v1h-2v-1h2zm0 0h2v1h1l-1 1h-1 1v-1h-1v3h-1v-4zm2 4-1-2h1l1 2h-1zm3-1v-1h-2v-1l1-1a2 2 0 0 1 1 0v1h-1v1h1v2h-1l-1-1h2z"/></symbol>

<symbol id="icon-company-3" viewBox="0 0 34 32">
<path fill="#afb1b8" style="fill:var(--color1, #afb1b8)" 
d="m6 31-1 1H4l-1-1a1 1 0 0 1 0-1h1v-1a2 2 0 0 1 1 0h1v1H5a1 1 0 0 0 0-1l-1 1v2h1a1 1 0 0 0 1-1zM10 31v1c0 1 0 0 0 0H8l-1-1v-1h1v-1h2v1a1 1 0 0 1 0 1zm0 0v-1a1 1 0 0 0-1 0H8v1a1 1 0 0 0 0 1h1l1-1zM14 31l1-2v3-2l-1 1-2-1v2-3h1l1 2zM18 31v1h-1v-3h2v1a1 1 0 0 1 0 1h-1zm0 0h1v-1l-1-1v2zM23 32v-1h-2v1h-1l2-3 1 3zm-2-1h1v-1l-1 1zM25 29l2 2v-2 3l-2-2v2-3zM30 31v1-1l-1-2 1 1a2 2 0 0 1 0 1v-1l1-1h1l-2 2zM14 25l7-5c2-2 2-5 2-8l-3-3c1 3 1 6-1 9l-5 7z"/><path fill="#afb1b8" style="fill:var(--color1, #afb1b8)" d="M12 24c3-1 5-4 7-7s1-5 0-8l-4-4a16 16 0 0 1-3 19zM27 15c0 3-2 6-5 8l-2 1c2 0 4-1 5-3l4-4-2-2z"/><path fill="#afb1b8" style="fill:var(--color1, #afb1b8)" d="m27 15-3-3-2 8c-1 3-4 3-7 5h2l6-4 4-6zM13 3l-3-2C7 1 5 3 3 5s-2 5-2 7c0 3 1 6 3 8l7 4c3-3 5-6 5-10s-1-8-3-11zM34 14c0-3-2-6-5-9s-6-3-10-3l-5 1 19 16 1-5z"/></symbol>

<symbol id="icon-company-2" viewBox="0 0 25 32">
<path fill="#afb1b8" style="fill:var(--color1, #afb1b8)" 
d="M11 2h-1a14 14 0 0 0-1 0L3 3 2 4v13h1a23 23 0 0 1 7-1v2H9a20 20 0 0 0-9 2V3a18 18 0 0 1 10-3 18 18 0 0 1 3 0v2h-2zm3 2h1a19 19 0 0 0 9-3v17a18 18 0 0 1-13 3V3a14 14 0 0 0 3 1zm8 0h-2a21 21 0 0 1-6 1h-1v14h1a14 14 0 0 0 5 0l3-2V4zM2 26a1 1 0 0 0-1 0 1 1 0 0 0-1 0v4h1a1 1 0 0 0 1-1H1v-3 1h1a1 1 0 0 0 0-1zM5 26a1 1 0 0 0-1 0v4a1 1 0 0 0 1 0l1-1v-3H5zm0 3H4v-3h1v3zM10 30v-4H9v2l-1-2H7v4h1v-3l1 2v-2 3h1zM14 26h-2v4-2h2a3 3 0 0 0 0-2zm-1 1v1h-1v-2h1v1zM16 26l-1 4h1v-1h1v1l-1-4zm0 2v-1 1zM20 28l-1-2v4-3l1 3h1v-4h-1v2zM24 26l-1 1v-1h-1l1 2v2h1v-2l1-2h-1zM0 31v1-1h1-1zM2 31v1h1v-1H2zm0 1 1-1v1H2zM5 32v-1H4l1 1v-1 1zM7 31v1h1-1v-1zM9 31v1-1zM11 32v-1 1-1 1h1v-1h-1v1zM13 32h1v-1h-1 1-1v1h1-1zM18 31h-1v1h1v-1zM20 32v-1h-1v1h1zM22 32v-1 1h1-1zm0-1zM24 32h1v-1h-1 1-1v1h1-1z"/></symbol>

<symbol id="icon-company-1" viewBox="0 0 28 32">
<path fill="#afb1b8" style="fill:var(--color1, #afb1b8)" 
d="m4 0 5 5H0v21h23v-8l5 5V0H4zm19 18L9 5h14v13zm-4 5H4V8h1v14h14v1zM7 29v1l-1-1v3h1v-1l1-2H7zm1 3v-1h1v1h1l-1-3H8l-1 3h1zm1-2v1H8l1-1zm2 1v1h1c1 0 0 0 0 0h1l-1-1h1-1v-2h-1v2zm1 0h-1 1zm-1-1h1-1zm4 2 1-1h-2v-1h2-1v-1h-1v3h1zm3-1v-1a1 1 0 0 0-1-1h-1v3h2v-1zm-1-1h1v1h-2v-1h1z"/></symbol>

<symbol id="icon-facebook-3" viewBox="0 0 32 32">
<path fill="#afb1b8" style="fill:var(--color1, #afb1b8)" 
d="M21 5h3V0h-4c-4 0-7 3-7 8v4H8v6h5v14h6V18h4l1-6h-5V8c0-2 0-3 2-3z"/></symbol>

<symbol id="icon-twitter-2" viewBox="0 0 32 32">
<path fill="#afb1b8" style="fill:var(--color1, #afb1b8)" 
d="m32 6-4 1c2-1 3-2 3-4l-4 2a7 7 0 0 0-11 6C10 11 5 8 2 4a7 7 0 0 0 2 9l-3-1c0 3 3 6 6 7a7 7 0 0 1-3 0c0 2 3 4 6 4a13 13 0 0 1-10 3A19 19 0 0 0 29 9l3-3z"/></symbol>

<symbol id="icon-preference-details-icon" viewBox="0 0 30 32">
<path fill="#212121" style="fill:var(--color2, #212121)" d
="m30 22-9-8 1-5h1a2 2 0 1 0-2-1h-5L8 0H7L6 2l1 1c-2 2-2 5-2 7 0 4 1 8 4 11v7H3c-2 0-3 1-3 2v1l1 1h24l1-1v-1c0-1-1-2-3-2h-6v-3h3c2 0 5 0 7-2v1h1v1-1l2-1a1 1 0 0 0 0-1zM22 6h1a1 1 0 0 1 0 2 1 1 0 0 1-1-2zm-1 4v3l-2-2 2-1zm0-1-2 2-2-2h4zm2 20 2 1v1H1v-1l2-1h20zm-7-2v1h-6v-1h6zm-6-1v-4c0-2 1-3 3-3s3 1 3 3v4h-6zm7-2v-2c0-2-2-4-4-4l-3 2A14 14 0 0 1 7 4l19 19a14 14 0 0 1-9 1zm11-1L7 2l1-1 8 8 13 13-1 1z"/><path fill="#2196f3" style="fill:var(--color3, #2196f3)" d="M13 20a2 2 0 0 0 0 3 2 2 0 0 0 0-3zm0 2a1 1 0 0 1 0-1 1 1 0 0 1 0 1z"/></symbol>

<symbol id="icon-preference-clock-icon" viewBox="0 0 32 32">
<path fill="#212121" style="fill:var(--color2, #212121)" 
d="M31 15a15 15 0 1 0-20 15h1v-1l4-12a2 2 0 1 0-1-3l-5-6a1 1 0 0 0-1 1l5 5v1l1 2-4 11a14 14 0 1 1 11 0l-1-2a1 1 0 0 0-1 0l-4 3v1h1l5 2a1 1 0 0 0 0-1v-2c5-2 9-7 9-14zm-15 0a1 1 0 0 1 0 1 1 1 0 0 1 0-1zm2 15 2-2 1 2h-3z"/><path fill="#2196f3" style="fill:var(--color3, #2196f3)" d="M15 3v1a1 1 0 0 0 2 0V3a1 1 0 1 0-2 0zM4 15a1 1 0 0 0 0 1h1a1 1 0 0 0 0-1H4zm24 1a1 1 0 0 0 0-1h-1a1 1 0 0 0 0 1h1z"/></symbol>

<symbol id="icon-preference-diagram-icon" viewBox="0 0 32 32">
<path fill="#2196f3" style="fill:var(--color3, #2196f3)" 
d="M15 15h1v5h-1v-5zm4 2h1v3h-1v-3zm-8 2h1v1h-1v-1zm-4-1h2v2H7v-2z"/><path fill="#212121" style="fill:var(--color2, #212121)" d="M2 28h25l2-1v-2l-2-2V10l3-3a2 2 0 1 0-1-1l-2 2V7l-2-2H4L2 7v16l-2 2v2l2 1zM30 5a1 1 0 0 1 0 1 1 1 0 0 1 0-1zM3 7l1-1h21l1 1v2l-1 1V8H4v13l1 1h19l1-1v-9l1-1v12H3V7zm5 7a2 2 0 1 0 1 3l2 1 1-1 4-4 3 3h1l3-3v8H5V9h18v2l-3 4-4-3h-1l-4 4h-1v-1l-2-1zm1 1a1 1 0 0 1-2 0 1 1 0 0 1 2 0zm3 9h5v1h-5v-1zM1 25l1-1h9v1l1 1h5l1-1v-1h9l1 1v2H1v-2z"/></symbol>

<symbol id="icon-preference-astronaut-icon" viewBox="0 0 32 32">
<path fill="#2196f3" style="fill:var(--color3, #2196f3)" 
d="M32 5V4h-2l-1-2h-1l-1 2h-2a1 1 0 0 0 0 1l1 1v3h1l1-1 2 1a1 1 0 0 0 1-1l-1-2 2-1zm-2 1h-1l1 1h-1a1 1 0 0 0-1 0h-1V6l-1-1h2V4l1 1h1v1zm-4 15h-1v1h1v-1zm0 2h-1v1h1v-1zm1-1h-1v1h1v-1zm-2 0h-1v1h1v-1zm-3 4h-1v1h1v-1zm0 3h-1v1h1v-1zm1-2h-1v2h1v-2zm-2 0h-1v2h1v-2zm-5-3h-1v1h1v-1zm0 2h-1v1h1v-1zm1-1h-1v1h1v-1zm-2 0h-1v1h1v-1zM6 6H5v1h1V6zm0 2H5v1h1V8zm1-1H6v1h1V7zM5 7H4v1h1V7z"/><path fill="#212121" style="fill:var(--color2, #212121)" d="m25 14-1-1h-1l-1 1-1 1-2 1h-1a7 7 0 0 0-3-14 7 7 0 0 0-6 11H6l-3 2-2 1a2 2 0 0 0-1 2l1 1h2l1-1 2-1h2l-6 5-1 2-1 1a2 2 0 0 0 2 1h1l2-1 1-2 1 1-3 3v1a2 2 0 0 0 1 2h1l5-5 5-6 4 1 3-2 2-1a2 2 0 0 0 0-3zM2 18a1 1 0 0 1-1-1l2-1v1l-1 1zm4-2-2 1v-2l2-1v2zm15-7-1 3-4-2-1-1 2-5c2 0 4 3 4 5zM9 9a6 6 0 0 1 7-5l-2 4-2 2 2 2 2-1 4 2A6 6 0 0 1 9 9zm6 1-1 1-1-1 1-1 1 1zM2 25a1 1 0 0 1 0-1l1-1v1l-1 1zm4 4a1 1 0 0 1-1 0 1 1 0 0 1 0-1l1-1 1 1-1 1zm3-4-2 2v-1l1-1v-1l-1-2H6l-2 1H3l3-3 4 4-1 1zm7-7v1l-5 5-5-5 3-2a1 1 0 0 0 0-1H7v-2h3l5 2h1l3 1v2l-3-1zm4 1v-2l1-1 1 1-2 2zm4-3-1 1-1-2h1s0-1 0 0a1 1 0 0 1 1 1z"/><path fill="#212121" style="fill:var(--color2, #212121)" d="m14 19-3-3-2 3H8h1l2 2 3-2zm-3 1-1-1 1-1 1 1-1 1zm6-15v1l2 2h1c0-2-2-3-3-3zm3 4h-1v1h1V9z"/></symbol>

<symbol id="header-mail-icon" viewBox="0 0 43 32">
<path d="M39 0H4C2 0 0 2 0 4v24c0 2 2 4 4 4h35c2 0 4-2 4-4V4c0-2-2-4-4-4zm0 3L21 18 3 3h36zm0 26H4l-1-1V6l17 15a1 1 0 0 0 2 0L40 6v22l-1 1z"/></symbol>

<symbol id="header-smartphone-icon" viewBox="0 0 20 32">
<path d="M17 0H3C1 0 0 1 0 3v26c0 2 1 3 3 3h14c2 0 3-1 3-3V3c0-2-1-3-3-3zM3 2h14l1 1v21H2V3l1-1zm14 28H3l-1-1v-3h16v3l-1 1z"/><path d="M5 27v2H3v-2h2z"/></symbol>
</defs></svg>